<?xml version="1.0" standalone="no"?>
<!DOCTYPE svg PUBLIC "-//W3C//DTD SVG 1.1//EN" "http://www.w3.org/Graphics/SVG/1.1/DTD/svg11.dtd" >
<svg xmlns="http://www.w3.org/2000/svg">
<metadata></metadata>
<defs>
<font id="newjunebookregular" horiz-adv-x="1189" >
<font-face units-per-em="2048" ascent="1638" descent="-410" />
<missing-glyph horiz-adv-x="522" />
<glyph horiz-adv-x="2048" />
<glyph horiz-adv-x="2048" />
<glyph unicode="&#xd;" horiz-adv-x="2048" />
<glyph unicode=" "  horiz-adv-x="522" />
<glyph unicode="&#x09;" horiz-adv-x="522" />
<glyph unicode="&#xa0;" horiz-adv-x="522" />
<glyph unicode="!" horiz-adv-x="419" d="M125 82q0 47 24.5 74.5t65.5 27.5q43 0 67.5 -27.5t24.5 -74.5q0 -46 -24.5 -73t-67.5 -27q-41 0 -65.5 27t-24.5 73zM150 461v1063h131v-1039z" />
<glyph unicode="&#x22;" horiz-adv-x="747" d="M129 1563h139l-16 -398h-111zM479 1563h139l-14 -398h-110z" />
<glyph unicode="#" horiz-adv-x="1423" d="M74 436l18 121h281l76 389h-293l20 119h295l86 459h125l-86 -459h373l86 459h123l-86 -459h282l-20 -119h-283l-72 -389h293l-20 -121h-297l-80 -436h-125l82 436h-377l-86 -436h-125l84 436h-274zM498 557h379l71 389h-375z" />
<glyph unicode="$" d="M104 104l31 125l86 -30q126 -45 223.5 -69t196.5 -24q89 0 161.5 28t121.5 94.5t49 164.5q0 109 -59 174.5t-185 96.5l-276 69q-340 82 -340 387q0 101 37 180.5t99 127.5t137.5 73t158.5 27v248h123v-252q129 -11 340 -84l86 -29l-31 -125l-84 31q-124 45 -218 67.5 t-192 22.5q-67 0 -124 -15.5t-104 -47t-74 -87.5t-27 -131q0 -108 56.5 -172.5t180.5 -95.5l277 -70q169 -41 257.5 -135t88.5 -254q0 -99 -36.5 -178t-98.5 -128t-137.5 -76t-159.5 -31v-250h-123v252q-151 17 -352 86z" />
<glyph unicode="%" horiz-adv-x="1845" d="M82 1159q0 184 102 290.5t275 106.5q177 0 277 -106t100 -291q0 -186 -103 -292.5t-278 -106.5t-274 106.5t-99 292.5zM201 1159q0 -141 67 -218t191 -77q127 0 192.5 76t65.5 219q0 141 -68 217t-194 76q-124 0 -189 -76.5t-65 -216.5zM233 0l1219 1524h145l-1218 -1524 h-146zM1012 369q0 184 102 290.5t275 106.5q176 0 276 -106t100 -291q0 -186 -103 -293t-278 -107q-174 0 -273 107t-99 293zM1130 369q0 -141 67.5 -218t191.5 -77q127 0 192.5 76t65.5 219q0 141 -68.5 217t-194.5 76q-124 0 -189 -76.5t-65 -216.5z" />
<glyph unicode="&#x26;" horiz-adv-x="1413" d="M106 371q0 275 328 422q-47 53 -67.5 76.5t-52.5 67.5t-45.5 75t-24.5 75.5t-11 92.5q0 90 34 161t93 115.5t135 68t162 23.5q178 0 290 -91t112 -257q0 -153 -97 -254.5t-325 -195.5l401 -443q55 62 88 175t33 245v182h125v-188q0 -144 -43.5 -280.5t-118.5 -219.5 l187 -221h-162l-115 135q-82 -73 -210 -116.5t-251 -43.5q-112 0 -201.5 31.5t-146.5 86t-87 125.5t-30 153zM242 375q0 -55 18.5 -104t56 -90t103 -65t151.5 -24q101 0 207.5 35.5t173.5 93.5l-440 486q-147 -63 -208.5 -144t-61.5 -188zM358 1180q0 -85 44.5 -155 t160.5 -189q198 74 286.5 154.5t88.5 207.5q0 105 -72 172.5t-209 67.5q-147 0 -223 -71t-76 -187z" />
<glyph unicode="'" horiz-adv-x="415" d="M135 1563h148l-17 -398h-114z" />
<glyph unicode="(" horiz-adv-x="559" d="M84 694q0 826 432 830v-117q-28 -1 -53 -8.5t-56.5 -27.5t-57.5 -51.5t-51.5 -86.5t-43 -127t-28.5 -177.5t-11 -234.5q0 -710 301 -731v-115q-44 0 -84 10.5t-84.5 36.5t-81.5 66.5t-71.5 107t-58.5 152.5t-38 207t-14 266z" />
<glyph unicode=")" horiz-adv-x="559" d="M55 -37q303 21 303 731q0 697 -303 713v117q434 -4 434 -830q0 -145 -14 -266t-38 -207t-58.5 -152t-71.5 -107t-81.5 -67t-85.5 -36.5t-85 -10.5v115z" />
<glyph unicode="*" horiz-adv-x="1110" d="M119 1186l43 133l362 -152l-30 396h141l-31 -396l365 150l41 -133l-377 -92l252 -306l-117 -84l-203 345l-205 -342l-116 83l254 306z" />
<glyph unicode="+" d="M121 541v125h405v440h127v-440h414v-125h-414v-443h-127v443h-405z" />
<glyph unicode="," horiz-adv-x="419" d="M102 -96l82 309h144l-95 -344q-15 -55 -67 -55q-39 0 -56 26t-8 64z" />
<glyph unicode="-" horiz-adv-x="833" d="M129 606v127h578v-127h-578z" />
<glyph unicode="." horiz-adv-x="419" d="M125 82q0 47 24.5 74.5t65.5 27.5t65.5 -27.5t24.5 -74.5q0 -46 -24.5 -73t-65.5 -27t-65.5 27t-24.5 73z" />
<glyph unicode="/" horiz-adv-x="827" d="M35 0l639 1524h129l-633 -1524h-135z" />
<glyph unicode="0" d="M143 471v573q0 236 122 366t345 130q222 0 337.5 -130t115.5 -372v-561q0 -241 -115.5 -370.5t-337.5 -129.5q-224 0 -345.5 129.5t-121.5 364.5zM270 477q0 -383 338 -383q171 0 250.5 97t79.5 286v561q0 190 -79.5 286.5t-252.5 96.5q-171 0 -253.5 -99t-82.5 -284 v-561z" />
<glyph unicode="1" d="M145 0v123h457v1276h-110q-150 0 -226 -37l-33 119q39 21 111.5 32t138.5 11h125q68 0 99.5 -30.5t31.5 -94.5v-1276h373v-123h-967z" />
<glyph unicode="2" d="M131 88q0 51 41 92l533 512q124 119 180.5 217.5t56.5 212.5q0 77 -25 134.5t-70 90.5t-100.5 48.5t-123.5 15.5q-150 0 -379 -72l-78 -24l-27 123l74 22q252 78 410 78q90 0 167 -22.5t141 -70t101 -130.5t37 -195q0 -125 -60.5 -248.5t-207.5 -261.5l-525 -493h797 v-117h-858q-39 0 -61.5 24t-22.5 64z" />
<glyph unicode="3" d="M111 84l28 121l82 -23q278 -78 408 -78q170 0 257 73.5t87 201.5q0 61 -22.5 109.5t-69.5 101.5l-113 119h-285v114h285l88 123q74 108 74 215q0 117 -74.5 184.5t-234.5 67.5q-51 0 -119.5 -12t-115 -23.5t-136.5 -36.5l-80 -20l-27 119l80 24q239 74 400 74 q211 0 322.5 -99t111.5 -276q0 -128 -86 -258l-99 -133l121 -127q107 -113 107 -262q0 -182 -127 -290.5t-342 -108.5q-169 0 -438 77z" />
<glyph unicode="4" d="M82 377q0 39 33 88l655 1005q43 66 111 66q94 0 94 -98v-1030h182v-115h-182v-293h-127v293h-682q-84 0 -84 84zM223 408h625v962z" />
<glyph unicode="5" d="M131 76l27 123l78 -23q122 -36 205 -54t157 -18q182 0 276.5 103.5t94.5 275.5q0 361 -371 361q-121 0 -279 -45l-122 -37v762h833v-127h-715v-484q183 52 299 52q227 0 354.5 -120t127.5 -362q0 -227 -133.5 -363t-362.5 -136q-150 0 -393 71z" />
<glyph unicode="6" d="M135 494v563q0 218 121.5 348.5t335.5 130.5q133 0 397 -70l78 -22l-27 -121l-77 20q-248 70 -367 70q-168 0 -251 -92t-83 -264v-166q220 72 344 72q243 0 367.5 -125t124.5 -357q0 -142 -52.5 -252t-161.5 -175.5t-261 -65.5q-226 0 -357 138.5t-131 367.5zM262 502 q0 -185 95 -290.5t270 -105.5q165 0 253.5 101.5t88.5 273.5q0 359 -375 359q-101 0 -332 -62v-276z" />
<glyph unicode="7" d="M141 1403v121h873q44 0 69 -23t25 -63q0 -30 -23 -88l-557 -1350h-139l586 1403h-834z" />
<glyph unicode="8" d="M98 375q0 149 107 268l114 127l-94 129q-84 127 -84 260q0 174 122.5 277.5t334.5 103.5q217 0 340 -103.5t123 -277.5q0 -136 -84 -258l-94 -131l118 -131q103 -112 103 -264q0 -182 -133.5 -288.5t-364.5 -106.5q-232 0 -370 107t-138 288zM227 373q0 -126 98 -200.5 t279 -74.5q183 0 277 74.5t94 202.5q0 62 -21 110t-69 101l-109 119h-350l-109 -119q-47 -51 -68.5 -100.5t-21.5 -112.5zM268 1159q0 -106 72 -217l86 -123h352l84 123q72 102 72 217t-84.5 187.5t-249.5 72.5q-166 0 -249 -72t-83 -188z" />
<glyph unicode="9" d="M109 1040q0 142 52.5 252.5t161.5 177t261 66.5q226 0 356.5 -138.5t130.5 -367.5v-563q0 -219 -121.5 -349t-335.5 -130q-168 0 -397 67l-78 23l27 123l78 -23q244 -69 366 -69q169 0 251.5 92t82.5 266v164q-214 -70 -344 -70q-243 0 -367 123.5t-124 355.5zM238 1040 q0 -171 88 -263.5t286 -92.5q103 0 332 59v279q0 184 -94.5 289.5t-269.5 105.5q-166 0 -254 -102.5t-88 -274.5z" />
<glyph unicode=":" horiz-adv-x="419" d="M125 82q0 47 24.5 74.5t65.5 27.5t65.5 -27.5t24.5 -74.5q0 -46 -24.5 -73t-65.5 -27t-65.5 27t-24.5 73zM125 997q0 47 24.5 75t65.5 28t65.5 -28t24.5 -75q0 -46 -24.5 -73t-65.5 -27t-65.5 27t-24.5 73z" />
<glyph unicode=";" horiz-adv-x="419" d="M102 -96l82 309h144l-95 -344q-15 -55 -67 -55q-39 0 -56 26t-8 64zM156 997q0 47 24.5 75t65.5 28q43 0 67.5 -28t24.5 -75q0 -46 -24.5 -73t-67.5 -27q-41 0 -65.5 27t-24.5 73z" />
<glyph unicode="&#x3c;" d="M100 604q0 64 66 92l924 379v-145l-852 -328l852 -330v-139l-926 377q-64 25 -64 94z" />
<glyph unicode="=" d="M121 373v131h946v-131h-946zM121 719v131h946v-131h-946z" />
<glyph unicode="&#x3e;" d="M100 133v139l852 328l-852 330v145l924 -379q66 -28 66 -92q0 -69 -64 -94z" />
<glyph unicode="?" horiz-adv-x="921" d="M76 1452l76 25q167 53 325 53q172 0 275.5 -88t103.5 -244q0 -108 -37 -182t-114 -158l-195 -205v-170l-121 -22v137q0 57 13 90.5t51 73.5l149 160q76 82 103.5 135.5t27.5 138.5q0 99 -65.5 157t-192.5 58q-137 0 -301 -49l-74 -23zM360 82q0 47 25 74.5t66 27.5 q43 0 67.5 -27.5t24.5 -74.5q0 -46 -24.5 -73t-67.5 -27q-41 0 -66 27t-25 73z" />
<glyph unicode="@" horiz-adv-x="1882" d="M182 723q0 177 61 330t167.5 259.5t255 167t319.5 60.5q209 0 375.5 -88t262 -250t95.5 -368q0 -224 -115 -368t-272 -144q-49 0 -112.5 24.5t-90.5 24.5q-42 0 -126 -16.5t-134 -16.5q-153 0 -234 94.5t-81 245.5q0 90 27 170t78 142t131 98t178 36q85 0 219 -18l10 74 h111l-95 -715q4 -4 20.5 -12.5t48 -18.5t58.5 -10q105 0 185 111t80 301q0 132 -48 243.5t-131 187.5t-196.5 118t-243.5 42q-307 0 -495.5 -196t-188.5 -508q0 -184 69.5 -328t205.5 -227.5t319 -83.5q85 0 172.5 20.5t163 41t129.5 20.5q64 0 123 -33l90 -53l-45 -88 l-82 41q-41 20 -94 20q-54 0 -123.5 -18.5t-158 -36.5t-187.5 -18q-161 0 -294.5 58t-221.5 159t-136.5 236t-48.5 290zM670 674q0 -104 54 -170t163 -66q60 0 215 31l72 539q-110 16 -207 16q-62 0 -112 -19t-84 -51.5t-57 -77.5t-33.5 -95.5t-10.5 -106.5z" />
<glyph unicode="A" horiz-adv-x="1376" d="M35 0l553 1460q28 78 104 78q79 0 107 -74l542 -1464h-141l-133 352h-762l-133 -352h-137zM344 467h684l-336 930z" />
<glyph unicode="B" horiz-adv-x="1366" d="M168 123v1280q0 57 33 89t94 32h510q182 0 285.5 -92t103.5 -269q0 -132 -82 -256l-96 -135l127 -133q110 -113 110 -264q0 -173 -116.5 -274t-319.5 -101h-518q-63 0 -97 32t-34 91zM297 113h526q146 0 222.5 68t76.5 186q0 115 -96 219l-119 123h-610v-596zM297 821 h608l88 125q70 108 70 217q0 248 -264 248h-502v-590z" />
<glyph unicode="C" horiz-adv-x="1353" d="M119 758q0 193 51 343t141.5 243t210 140.5t262.5 47.5q151 0 394 -76l96 -29l-25 -122l-100 30q-235 72 -363 72q-250 0 -389 -160.5t-139 -488.5q0 -329 140.5 -489t389.5 -160q132 0 361 71l100 31l25 -123l-96 -31q-236 -73 -394 -73q-147 0 -266 45.5t-209.5 137 t-140 242t-49.5 349.5z" />
<glyph unicode="D" horiz-adv-x="1474" d="M168 123v1276q0 60 35 92.5t98 32.5h395q304 0 485 -204.5t181 -561.5q0 -178 -49.5 -321.5t-138.5 -239t-212.5 -146.5t-271.5 -51h-389q-63 0 -98 32.5t-35 90.5zM301 119h383q260 0 402.5 167.5t142.5 471.5q0 298 -148 473.5t-411 175.5h-369v-1288z" />
<glyph unicode="E" horiz-adv-x="1241" d="M168 123v1276q0 60 35 92.5t98 32.5h821v-121h-821v-565h723v-117h-723v-602h827v-119h-827q-63 0 -98 32.5t-35 90.5z" />
<glyph unicode="F" horiz-adv-x="1163" d="M168 0v1399q0 60 35 92.5t98 32.5h801v-121h-801v-594h733v-117h-733v-692h-133z" />
<glyph unicode="G" horiz-adv-x="1460" d="M119 756q0 193 53 343t148 243t220 140.5t275 47.5q92 0 185.5 -18.5t228.5 -57.5l98 -29l-27 -125l-104 31q-257 74 -383 74q-265 0 -412 -160t-147 -489q0 -165 42.5 -291.5t119.5 -205t181 -118t232 -39.5q170 0 375 48v446h-381v115h379q127 0 127 -123v-418 q0 -58 -26 -86.5t-89 -46.5q-198 -53 -385 -53q-154 0 -281 45.5t-224 137t-151 241.5t-54 348z" />
<glyph unicode="H" horiz-adv-x="1447" d="M168 0v1524h131v-693h850v693h129v-1524h-129v717h-850v-717h-131z" />
<glyph unicode="I" horiz-adv-x="471" d="M168 0v1524h133v-1524h-133z" />
<glyph unicode="J" horiz-adv-x="741" d="M27 25l20 122q128 -32 201 -32q107 0 151.5 56t44.5 185v1168h134v-1174q0 -175 -87.5 -266.5t-244.5 -91.5q-81 0 -219 33z" />
<glyph unicode="K" horiz-adv-x="1316" d="M168 0v1524h129v-934l764 934h172l-447 -527l474 -997h-142l-428 891l-256 -301q-57 -69 -80 -101t-40 -82t-17 -114v-293h-129z" />
<glyph unicode="L" horiz-adv-x="1148" d="M168 123v1401h135v-1403h764v-121h-768q-63 0 -97 32t-34 91z" />
<glyph unicode="M" horiz-adv-x="1755" d="M168 0v1427q0 107 108 107q96 0 130 -92l468 -1303l488 1303q37 92 121 92q45 0 73.5 -26t28.5 -81v-1427h-125v1370l-493 -1315q-23 -63 -95 -63q-74 0 -96 63l-485 1315v-1370h-123z" />
<glyph unicode="N" horiz-adv-x="1492" d="M168 0v1436q0 51 26 76.5t70 25.5q67 0 107 -61l831 -1307v1354h123v-1434q0 -51 -25.5 -75.5t-70.5 -24.5q-65 0 -105 61l-831 1307v-1358h-125z" />
<glyph unicode="O" horiz-adv-x="1597" d="M113 758q0 364 189.5 569t502.5 205q310 0 495 -204t185 -570q0 -186 -50 -333t-141 -243.5t-218 -147t-281 -50.5q-312 0 -497 203.5t-185 570.5zM246 758q0 -314 149.5 -487t407.5 -173q257 0 402 171.5t145 488.5q0 312 -147 483.5t-404 171.5q-260 0 -406.5 -171 t-146.5 -484z" />
<glyph unicode="P" horiz-adv-x="1265" d="M168 0v1401q0 59 34 91t97 32h446q190 0 311.5 -123.5t121.5 -333.5q0 -212 -126 -334.5t-329 -122.5h-428v-610h-127zM295 723h428q155 0 243.5 91.5t88.5 254.5q0 157 -87 249.5t-231 92.5h-442v-688z" />
<glyph unicode="Q" horiz-adv-x="1576" d="M113 758q0 364 189.5 569t502.5 205q310 0 494 -204t184 -570q0 -267 -103.5 -441.5t-300.5 -255.5q18 -9 49.5 -23t116.5 -37.5t154 -23.5h55v-110h-55q-89 0 -171 21t-135 45.5t-128 45.5t-152 21q-157 0 -285 48.5t-221 142.5t-143.5 238.5t-50.5 328.5zM244 758 q0 -314 149.5 -479.5t411.5 -165.5q259 0 402 164.5t143 480.5q0 312 -147 483.5t-404 171.5q-260 0 -407.5 -171.5t-147.5 -483.5z" />
<glyph unicode="R" horiz-adv-x="1327" d="M168 0v1403q0 121 125 121h498q191 0 297 -104t106 -300q0 -144 -111 -293l-125 -161l314 -666h-146l-288 629h-539v-629h-131zM299 741h571l88 123q49 70 76 129.5t27 124.5q0 293 -281 293h-481v-670z" />
<glyph unicode="S" horiz-adv-x="1292" d="M127 102l33 125l90 -30q279 -93 457 -93q65 0 122 16.5t104.5 50t75 90.5t27.5 132q0 109 -59.5 174.5t-192.5 94.5l-292 67q-359 80 -359 391q0 104 39 185.5t104.5 130t146 73.5t169.5 25q121 0 227 -21.5t252 -68.5l90 -29l-31 -125l-92 31q-266 90 -444 90 q-90 0 -162 -28t-120 -94.5t-48 -164.5q0 -109 59.5 -173t190.5 -93l295 -67q360 -82 360 -394q0 -104 -38.5 -185t-104.5 -129.5t-146.5 -73.5t-170.5 -25q-222 0 -490 90z" />
<glyph unicode="T" horiz-adv-x="1243" d="M70 1403v121h1108v-121h-488v-1403h-135v1403h-485z" />
<glyph unicode="U" horiz-adv-x="1464" d="M158 537v987h133v-987q0 -215 111 -330t329 -115q224 0 333.5 114t109.5 331v987h131v-987q0 -265 -149.5 -415.5t-424.5 -150.5q-274 0 -423.5 150.5t-149.5 415.5z" />
<glyph unicode="V" horiz-adv-x="1351" d="M41 1524h143l494 -1379l493 1379h140l-543 -1467q-23 -69 -96 -69q-74 0 -97 69z" />
<glyph unicode="W" horiz-adv-x="1853" d="M61 1524h127l252 -1372l396 1304q9 32 34 50t60 18t60 -18t34 -50l389 -1306l256 1374h123l-274 -1456q-15 -82 -101 -82q-81 0 -102 73l-389 1317l-398 -1317q-22 -73 -100 -73q-82 0 -98 82z" />
<glyph unicode="X" horiz-adv-x="1378" d="M86 0l520 768l-514 756h160l442 -658l436 658h150l-504 -752l516 -772h-157l-445 676l-450 -676h-154z" />
<glyph unicode="Y" horiz-adv-x="1306" d="M35 1524h153l480 -744l465 744h149l-551 -862v-662h-135v657z" />
<glyph unicode="Z" horiz-adv-x="1296" d="M113 94q0 38 28 80l895 1233h-901v117h948q44 0 67.5 -26.5t23.5 -70.5q0 -37 -29 -77l-891 -1235h930v-115h-981q-44 0 -67 25.5t-23 68.5z" />
<glyph unicode="[" horiz-adv-x="559" d="M156 -133v1657h358v-115h-231v-1429h231v-113h-358z" />
<glyph unicode="\" horiz-adv-x="827" d="M35 1524h129l639 -1524h-133z" />
<glyph unicode="]" horiz-adv-x="559" d="M55 -20h232v1429h-232v115h359v-1657h-359v113z" />
<glyph unicode="^" d="M137 88l375 959q26 65 86 65q63 0 88 -65l379 -959h-143l-326 864l-322 -864h-137z" />
<glyph unicode="_" horiz-adv-x="1110" d="M-20 -213h1146v-119h-1146v119z" />
<glyph unicode="`" horiz-adv-x="1093" d="M397 1563h193l166 -162q22 -22 22 -51q0 -22 -16.5 -40t-42.5 -18t-51 25z" />
<glyph unicode="a" horiz-adv-x="1206" d="M109 289q0 72 23 128t62 92.5t95 60.5t117 34t133 10h350v142q0 250 -275 250q-124 0 -354 -66l-80 -22l-24 118l75 21q257 69 385 69q179 0 287.5 -91t108.5 -279v-594l133 -82l-49 -96l-92 55q-47 25 -96 25q-26 0 -52 -7l-84 -22q-181 -49 -307 -49q-168 0 -262 80 t-94 223zM236 293q0 -195 247 -195q108 0 275 41l131 29v336h-352q-148 0 -224.5 -50t-76.5 -161z" />
<glyph unicode="b" horiz-adv-x="1212" d="M158 174v1376l125 27v-524q213 69 342 69q237 0 358 -146.5t121 -422.5q0 -257 -133.5 -409t-366.5 -152q-142 0 -336 51q-56 14 -83 45t-27 86zM283 160q207 -49 317 -49q100 0 173.5 32.5t117.5 93t65 140t21 178.5q0 444 -369 444q-110 0 -325 -59v-780z" />
<glyph unicode="c" horiz-adv-x="1054" d="M106 557q0 273 133 420t357 147q108 0 311 -55l80 -20l-24 -121l-80 20q-212 56 -281 56q-362 0 -362 -447q0 -446 364 -446q90 0 279 53l80 20l24 -118l-80 -23q-195 -55 -311 -55q-228 0 -359 141t-131 428z" />
<glyph unicode="d" horiz-adv-x="1210" d="M106 553q0 270 129 419.5t363 149.5q114 0 332 -69v503l123 27v-1409q0 -105 -107 -129q-217 -53 -348 -53q-233 0 -362.5 147t-129.5 414zM236 555q0 -100 21 -179t64.5 -139.5t116.5 -93t172 -32.5q113 0 320 49v780q-217 58 -326 61q-130 0 -214 -58t-119 -155 t-35 -233z" />
<glyph unicode="e" horiz-adv-x="1187" d="M106 555q0 145 40 257.5t109 180.5t156.5 102.5t188.5 34.5q226 0 358 -138.5t132 -409.5q0 -39 -19 -60.5t-55 -21.5h-776q4 -97 35.5 -172.5t85.5 -122t123.5 -70.5t152.5 -24q125 0 309 57l101 33l26 -117l-98 -33q-105 -35 -182 -49t-162 -14q-240 0 -382.5 145 t-142.5 422zM240 614h718q0 182 -90 294t-270 112q-159 0 -254 -109t-104 -297z" />
<glyph unicode="f" horiz-adv-x="751" d="M51 977v117h182v123q0 171 83.5 260.5t234.5 89.5q62 0 217 -31l-20 -121q-129 31 -199 31q-103 0 -146 -55.5t-43 -182.5v-114h355v-117h-355v-977h-127v977h-182z" />
<glyph unicode="g" horiz-adv-x="1202" d="M102 766q0 168 122.5 257t334.5 89h129q145 0 207 18l227 62l29 -109l-252 -67q5 -3 13 -9t29 -28t37 -48.5t29 -70t13 -92.5q0 -170 -120.5 -258t-338.5 -88q-39 0 -75 4t-52 8l-16 4q33 -33 33 -90q0 -31 -11.5 -58.5t-48.5 -74.5h408q164 0 250 -69t86 -183 q0 -159 -138.5 -246.5t-423.5 -87.5q-93 0 -172.5 15.5t-145 48.5t-103 91t-37.5 136q0 111 78 207l104 127q45 57 45 100q0 39 -20.5 69.5t-65.5 61.5q-32 22 -55.5 43.5t-48 55t-37.5 80t-13 102.5zM225 766q0 -250 336 -250q153 0 244.5 61t91.5 189q0 240 -336 240 t-336 -240zM236 -76q0 -66 47.5 -109.5t124 -62t180.5 -18.5q426 0 426 225q0 145 -219 145h-484q-75 -80 -75 -180z" />
<glyph unicode="h" horiz-adv-x="1159" d="M158 0v1550l125 27v-526q219 71 338 71q106 0 184 -30.5t122.5 -86.5t65.5 -126t21 -156v-723h-125v717q0 133 -64.5 208.5t-218.5 75.5q-110 0 -323 -61v-940h-125z" />
<glyph unicode="i" horiz-adv-x="477" d="M147 1466q0 46 25 74.5t66 28.5q42 0 67 -28.5t25 -74.5t-24.5 -73t-67.5 -27q-41 0 -66 27t-25 73zM174 0v1114h131v-1114h-131z" />
<glyph unicode="j" horiz-adv-x="501" d="M14 -258q99 1 142 58t43 175v1139h129v-1139q0 -166 -82.5 -256t-231.5 -90v113zM172 1466q0 46 24.5 74.5t65.5 28.5q42 0 67 -28.5t25 -74.5t-24.5 -73t-67.5 -27q-41 0 -65.5 27t-24.5 73z" />
<glyph unicode="k" horiz-adv-x="1110" d="M158 0v1550l123 27v-1108l589 645h164l-360 -385l389 -729h-148l-340 637l-174 -184q-44 -46 -64 -72t-38 -75.5t-18 -112.5v-193h-123z" />
<glyph unicode="l" horiz-adv-x="446" d="M158 0v1548l129 29v-1577h-129z" />
<glyph unicode="m" horiz-adv-x="1755" d="M158 0v936q0 55 26 86t82 49q155 51 309 51q179 0 277 -98q217 98 385 98q186 0 275.5 -101.5t89.5 -277.5v-743h-125v731q0 130 -57.5 199t-194.5 69q-77 0 -144.5 -16.5t-169.5 -54.5q37 -75 37 -185v-743h-127v733q0 271 -256 271q-119 0 -280 -52v-952h-127z" />
<glyph unicode="n" horiz-adv-x="1177" d="M158 0v938q0 57 26 88t80 45q195 51 352 51q106 0 186 -30.5t127.5 -85.5t71 -126.5t23.5 -158.5v-721h-125v709q0 292 -297 292q-130 0 -317 -49v-952h-127z" />
<glyph unicode="o" horiz-adv-x="1236" d="M106 557q0 269 140.5 419t376.5 150t371.5 -149t135.5 -420t-138.5 -420t-375.5 -149t-373.5 150.5t-136.5 418.5zM240 557q0 -220 99.5 -339.5t283.5 -119.5q183 0 280.5 119.5t97.5 339.5q0 216 -101 336.5t-284 120.5q-182 0 -279 -120t-97 -337z" />
<glyph unicode="p" horiz-adv-x="1210" d="M158 -383v1321q0 104 106 131q217 53 348 53q233 0 362.5 -147t129.5 -414q0 -270 -129 -419.5t-363 -149.5q-122 0 -331 67v-415zM281 174q205 -57 325 -61q192 0 280.5 118t88.5 328q0 204 -91 323t-284 119q-121 0 -319 -49v-778z" />
<glyph unicode="q" horiz-adv-x="1202" d="M106 561q0 257 134 409t366 152q141 0 338 -51q56 -14 82.5 -45t26.5 -88v-1292l-123 -27v442q-208 -69 -342 -69q-239 0 -360.5 146t-121.5 423zM233 559q0 -102 20.5 -181.5t63.5 -140t115.5 -92.5t171.5 -32q113 3 326 59v780q-210 49 -318 49q-100 0 -174.5 -32.5 t-118.5 -93t-65 -139t-21 -177.5z" />
<glyph unicode="r" horiz-adv-x="714" d="M158 0v938q0 57 27 88t81 45q114 31 199.5 41t226.5 10v-127q-235 0 -407 -47v-948h-127z" />
<glyph unicode="s" horiz-adv-x="1101" d="M127 74l27 121l73 -23q232 -66 375 -66q109 0 177.5 47.5t68.5 143.5q0 73 -47 116.5t-156 61.5l-219 39q-139 25 -216 100t-77 193q0 105 54 179t136.5 107t182.5 33q106 0 195 -16t204 -51l74 -21l-25 -120l-75 20q-226 68 -375 68q-106 0 -175 -48.5t-69 -144.5 q0 -73 47 -116.5t156 -63.5l221 -37q137 -23 214 -100t77 -193q0 -105 -54 -178.5t-136.5 -106t-184.5 -32.5q-104 0 -190 16t-207 51z" />
<glyph unicode="t" horiz-adv-x="817" d="M45 977v117h180v284l125 27v-311h381v-117h-381v-631q0 -127 43.5 -183.5t145.5 -56.5q64 0 196 31l21 -119q-133 -30 -224 -30q-154 0 -230.5 88.5t-76.5 259.5v641h-180z" />
<glyph unicode="u" horiz-adv-x="1181" d="M158 391v723h125v-711q0 -290 297 -290q129 0 317 47v954h127v-940q0 -56 -26 -86.5t-80 -44.5q-195 -51 -353 -51q-106 0 -186 30.5t-127.5 85t-70.5 125.5t-23 158z" />
<glyph unicode="v" horiz-adv-x="1087" d="M55 1114h140l344 -997l354 997h139l-393 -1061q-27 -73 -104 -73q-78 0 -105 73z" />
<glyph unicode="w" horiz-adv-x="1603" d="M76 1114h133l186 -993l322 938q18 61 84 61q65 0 84 -61l317 -940l197 995h127l-223 -1051q-18 -83 -103 -83q-75 0 -102 77l-297 901l-312 -903q-23 -73 -102 -73q-86 0 -104 81z" />
<glyph unicode="x" horiz-adv-x="1105" d="M72 0l403 561l-395 553h156l321 -463l311 463h150l-383 -545l403 -569h-157l-328 475l-330 -475h-151z" />
<glyph unicode="y" horiz-adv-x="1077" d="M55 1114h146l372 -1005l318 1005h139l-422 -1264q-74 -223 -297 -223q-90 0 -209 35l21 119q140 -35 190 -35q77 0 114 35t58 108l19 60z" />
<glyph unicode="z" horiz-adv-x="1077" d="M109 86q0 45 32 82l699 836h-705v110h766q41 0 62.5 -23t21.5 -63q0 -44 -33 -82l-698 -835h735v-111h-796q-41 0 -62.5 23t-21.5 63z" />
<glyph unicode="{" horiz-adv-x="546" d="M131 647v90q69 0 102 29.5t33 79.5q0 46 -27 114.5t-54 148t-27 151.5q0 124 75 194t195 70h74v-119h-74q-69 0 -108 -38.5t-39 -115.5q0 -79 50 -210t50 -193q0 -53 -23.5 -93.5t-64.5 -62.5q88 -48 88 -155q0 -62 -50 -193.5t-50 -210.5q0 -77 39 -115t108 -38h74v-117 h-74q-121 0 -195.5 69t-74.5 193q0 72 27 151.5t54 148t27 114.5q0 50 -33 79t-102 29z" />
<glyph unicode="|" horiz-adv-x="432" d="M158 -369v1932h116v-1932h-116z" />
<glyph unicode="}" horiz-adv-x="546" d="M61 -20h74q68 0 108 38.5t40 114.5q0 51 -16 109t-34.5 101.5t-34.5 97t-16 96.5q0 107 88 155q-41 22 -64.5 62.5t-23.5 93.5t25 122.5t50.5 143t25.5 137.5q0 77 -39.5 115.5t-108.5 38.5h-74v119h74q120 0 195.5 -70t75.5 -194q0 -57 -17 -119.5t-37.5 -108 t-37.5 -97.5t-17 -89q0 -50 33 -79.5t102 -29.5v-90q-69 0 -102 -29t-33 -79q0 -37 17 -88.5t37.5 -96.5t37.5 -107.5t17 -119.5q0 -125 -75 -194.5t-196 -69.5h-74v117z" />
<glyph unicode="~" d="M100 559q49 120 125.5 178t163.5 58q94 0 180 -62l125 -94q55 -43 113 -43q55 0 100 36.5t86 133.5l97 -64q-47 -120 -123 -177.5t-164 -57.5q-93 0 -178 61l-127 93q-61 45 -111 45q-57 0 -103 -36.5t-87 -133.5z" />
<glyph unicode="&#xa1;" horiz-adv-x="419" d="M125 1059q0 47 24.5 74.5t65.5 27.5t65.5 -27.5t24.5 -74.5q0 -46 -24.5 -73.5t-65.5 -27.5t-65.5 27.5t-24.5 73.5zM150 -381v1038l131 25v-1063h-131z" />
<glyph unicode="&#xa2;" d="M139 557q0 249 113 394t307 169v258h123v-258q97 -8 258 -51l80 -22l-25 -119l-80 20q-212 56 -280 56q-363 0 -363 -447q0 -446 365 -446q77 0 278 53l80 22l25 -120l-80 -21q-166 -43 -258 -51v-266h-123v266q-197 20 -308.5 159.5t-111.5 403.5z" />
<glyph unicode="&#xa3;" d="M66 55q0 26 13 43t38 17q307 0 307 297q0 77 -37 161h-260v113h211q-12 21 -38.5 66.5t-35 60.5t-27.5 50t-25 49t-18.5 42.5t-16 45.5t-9 43.5t-7 50.5t-1.5 53q0 179 122 285t314 106q153 0 399 -74l78 -22l-26 -123l-78 22q-241 72 -369 72q-158 0 -233.5 -72.5 t-75.5 -193.5q0 -49 6.5 -89t25.5 -84.5t35 -75.5t53 -96.5t62 -113.5h404v-113h-355q29 -79 29 -163q0 -171 -117 -291h367q114 0 168 43t55 139h102q0 -141 -83.5 -222t-233.5 -81h-692q-51 0 -51 55z" />
<glyph unicode="&#xa4;" d="M68 565v117h155v164h-155v115h155q0 279 139 429t369 150q108 0 311 -55l80 -21l-24 -125l-78 23q-175 51 -285 51q-375 0 -375 -452h508v-115h-510v-164h510v-117h-508q0 -456 375 -456q81 0 285 53l78 22l24 -123l-80 -22q-195 -55 -311 -55q-231 0 -369.5 149 t-138.5 432h-155z" />
<glyph unicode="&#xa5;" d="M70 1524h157l381 -674l375 674h152l-402 -686h361v-111h-420v-166h420v-112h-420v-449h-135v449h-428v112h428v166h-428v111h366z" />
<glyph unicode="&#xa7;" d="M125 666v393q0 217 123.5 347t345.5 130q146 0 397 -70l78 -20l-27 -123l-77 23q-237 67 -367 67q-174 0 -260 -92.5t-86 -261.5v-160q214 70 344 70q481 0 481 -475v-398q0 -217 -125.5 -347t-345.5 -130q-144 0 -395 70l-78 22l27 123l78 -22q255 -72 366 -72 q175 0 260.5 92.5t85.5 263.5v160q-220 -72 -342 -72q-243 0 -363 123.5t-120 358.5zM252 666q0 -83 18 -146t58.5 -112t112.5 -75t175 -26q101 0 334 64v123q0 83 -18 145t-58.5 110.5t-112.5 73.5t-175 25t-334 -64v-118z" />
<glyph unicode="&#xa8;" horiz-adv-x="1153" d="M266 1466q0 46 24.5 74.5t65.5 28.5t65.5 -28.5t24.5 -74.5t-24.5 -73t-65.5 -27t-65.5 27t-24.5 73zM727 1466q0 46 24.5 74.5t65.5 28.5q42 0 67 -28.5t25 -74.5t-24.5 -73t-67.5 -27q-41 0 -65.5 27t-24.5 73z" />
<glyph unicode="&#xa9;" horiz-adv-x="1882" d="M152 754q0 172 64 321.5t172.5 253t255 162.5t308.5 59q163 0 310 -58.5t256 -161t173 -252.5t64 -324q0 -171 -64 -322t-173 -256.5t-256 -166t-310 -60.5q-162 0 -309 60.5t-255 166t-172 256.5t-64 322zM262 754q0 -148 55 -278.5t148 -221.5t219.5 -144t267.5 -53 q190 0 347.5 88.5t250 249t92.5 359.5q0 202 -93.5 361t-250.5 244t-346 85q-191 0 -348 -86.5t-249.5 -245t-92.5 -358.5zM565 750q0 205 107.5 315.5t283.5 110.5q73 0 238 -43l66 -17l-25 -100l-66 16q-151 37 -211 37q-278 0 -278 -319q0 -161 72 -241.5t209 -80.5 q63 0 210 39l66 16l23 -100l-66 -16q-164 -41 -240 -41q-179 0 -284 105t-105 319z" />
<glyph unicode="&#xaa;" d="M223 913q0 70 26 120t73.5 77.5t104.5 40t128 12.5h242v84q0 178 -181 178q-109 0 -268 -43l-72 -18l-24 106l80 23q165 47 286 47q132 0 212.5 -70.5t80.5 -222.5v-446l95 -51l-41 -86l-76 36q-53 23 -139 5l-103 -21q-95 -18 -151 -18q-128 0 -200.5 69t-72.5 178z M344 918q0 -148 172 -148q46 0 182 25l99 18v250h-244q-106 0 -157.5 -34t-51.5 -111z" />
<glyph unicode="&#xab;" horiz-adv-x="1128" d="M102 573q0 48 41 89l308 299h163l-391 -388l393 -383h-163l-310 297q-41 41 -41 86zM530 573q0 50 39 89l310 299h161l-393 -388l400 -383h-164l-312 297q-41 41 -41 86z" />
<glyph unicode="&#xac;" d="M117 635v127h948v-578h-123v451h-825z" />
<glyph unicode="&#xad;" horiz-adv-x="833" d="M129 606v127h578v-127h-578z" />
<glyph unicode="&#xae;" horiz-adv-x="1882" d="M152 754q0 172 64 321.5t172.5 253t255 162.5t308.5 59q163 0 310 -58.5t256 -161t173 -252.5t64 -324q0 -171 -64 -322t-173 -256.5t-256 -166t-310 -60.5q-162 0 -309 60.5t-255 166t-172 256.5t-64 322zM262 754q0 -148 55 -278.5t148 -221.5t219.5 -144t267.5 -53 q190 0 347.5 88.5t250 249t92.5 359.5q0 202 -93.5 361t-250.5 244t-346 85q-191 0 -348 -86.5t-249.5 -245t-92.5 -358.5zM672 342v731q0 55 23.5 76.5t76.5 21.5h275q105 0 170 -65t65 -168q0 -80 -45 -150l-74 -106l168 -340h-119l-147 303h-285v-303h-108zM780 743h301 l54 78q34 49 34 117q0 62 -38 98.5t-99 36.5h-252v-330z" />
<glyph unicode="&#xaf;" horiz-adv-x="1071" d="M225 1366v123h641v-123h-641z" />
<glyph unicode="&#xb0;" horiz-adv-x="960" d="M117 1169q0 171 103 283.5t274 112.5q168 0 268 -112t100 -284q0 -173 -102.5 -284t-270.5 -111q-171 0 -271.5 111t-100.5 284zM238 1169q0 -131 67.5 -213t188.5 -82q119 0 184 81t65 214q0 132 -67.5 212.5t-186.5 80.5q-121 0 -186 -80.5t-65 -212.5z" />
<glyph unicode="&#xb1;" d="M121 0v119h946v-119h-946zM121 604v125h407v377h123v-377h416v-125h-416v-356h-123v356h-407z" />
<glyph unicode="&#xb4;" horiz-adv-x="1093" d="M420 1350q0 29 22 51l166 162h193l-271 -246q-25 -25 -51 -25t-42.5 18t-16.5 40z" />
<glyph unicode="&#xb5;" d="M160 -381v1495h127v-711q0 -137 67 -211.5t228 -74.5q127 0 317 47v950h127v-934q0 -57 -25 -87t-79 -44q-196 -53 -353 -53q-87 -2 -164.5 23t-119.5 71v-471h-125z" />
<glyph unicode="&#xb6;" horiz-adv-x="1265" d="M100 995q0 111 30 205.5t88.5 167.5t153 114.5t214.5 41.5h549v-1905h-119v1794h-309v-1794h-119v848q-120 0 -214 41t-153.5 113.5t-90 167.5t-30.5 206z" />
<glyph unicode="&#xb7;" horiz-adv-x="753" d="M295 752q0 46 24.5 73t65.5 27q43 0 67.5 -27t24.5 -73q0 -47 -24.5 -75t-67.5 -28q-41 0 -65.5 28t-24.5 75z" />
<glyph unicode="&#xb8;" horiz-adv-x="1071" d="M367 -360l24 79q82 -32 148 -32q102 0 102 69q0 45 -47.5 59.5t-138.5 8.5l-6 10l83 166h76l-51 -106q80 0 131 -34.5t51 -99.5q0 -70 -53 -115.5t-145 -45.5q-82 0 -174 41z" />
<glyph unicode="&#xba;" d="M215 1106q0 201 104 318.5t277 117.5q174 0 276.5 -117t102.5 -319t-105 -320t-278 -118q-174 0 -275.5 117t-101.5 321zM336 1106q0 -160 68.5 -248t191.5 -88q125 0 192.5 88.5t67.5 247.5q0 156 -70.5 245t-193.5 89q-125 0 -190.5 -87.5t-65.5 -246.5z" />
<glyph unicode="&#xbb;" horiz-adv-x="1128" d="M82 190l399 383l-393 388h162l309 -299q39 -39 39 -89q0 -45 -41 -86l-311 -297h-164zM512 190l393 383l-391 388h164l307 -299q41 -41 41 -89q0 -45 -41 -86l-309 -297h-164z" />
<glyph unicode="&#xbf;" horiz-adv-x="921" d="M80 -57q0 109 37 184.5t114 157.5l193 202v172l121 23v-137q0 -57 -12.5 -90.5t-49.5 -73.5l-151 -162q-74 -79 -101.5 -133.5t-27.5 -140.5q0 -99 64.5 -156t191.5 -57q146 0 301 49l76 22l24 -114l-76 -23q-178 -53 -327 -53q-172 0 -274.5 87t-102.5 243zM393 1059 q0 47 24.5 74.5t65.5 27.5t65.5 -27.5t24.5 -74.5q0 -46 -24.5 -73.5t-65.5 -27.5t-65.5 27.5t-24.5 73.5z" />
<glyph unicode="&#xc0;" horiz-adv-x="1376" d="M35 0l553 1460q28 78 104 78q79 0 107 -74l542 -1464h-141l-133 352h-762l-133 -352h-137zM344 467h684l-336 930zM485 1915h193l166 -162q22 -22 22 -51q0 -22 -16.5 -39.5t-42.5 -17.5q-27 0 -51 24z" />
<glyph unicode="&#xc1;" horiz-adv-x="1376" d="M35 0l553 1460q28 78 104 78q79 0 107 -74l542 -1464h-141l-133 352h-762l-133 -352h-137zM344 467h684l-336 930zM526 1702q0 28 23 51l166 162h192l-270 -246q-24 -24 -51 -24q-26 0 -43 17.5t-17 39.5z" />
<glyph unicode="&#xc2;" horiz-adv-x="1376" d="M35 0l553 1460q28 78 104 78q79 0 107 -74l542 -1464h-141l-133 352h-762l-133 -352h-137zM344 467h684l-336 930zM352 1659l256 254q37 37 84 37q52 0 84 -37l258 -254h-182l-160 184l-160 -184h-180z" />
<glyph unicode="&#xc3;" horiz-adv-x="1376" d="M35 0l553 1460q28 78 104 78q79 0 107 -74l542 -1464h-141l-133 352h-762l-133 -352h-137zM289 1720q39 102 108 152.5t142 50.5q81 0 147 -49l98 -72q47 -33 93 -33q93 0 149 136l96 -52q-39 -102 -107.5 -153t-140.5 -51q-83 0 -149 49l-96 69q-46 35 -94 35 q-45 0 -83 -29t-69 -106zM344 467h684l-336 930z" />
<glyph unicode="&#xc4;" horiz-adv-x="1376" d="M35 0l553 1460q28 78 104 78q79 0 107 -74l542 -1464h-141l-133 352h-762l-133 -352h-137zM344 467h684l-336 930zM373 1782q0 46 24.5 74t65.5 28t65.5 -28t24.5 -74t-24.5 -73.5t-65.5 -27.5t-65.5 27.5t-24.5 73.5zM834 1782q0 46 24.5 74t65.5 28q42 0 67 -28t25 -74 t-25 -73.5t-67 -27.5q-41 0 -65.5 27.5t-24.5 73.5z" />
<glyph unicode="&#xc5;" horiz-adv-x="1380" d="M35 0l553 1460q-50 25 -79.5 73t-29.5 109q0 90 60.5 147.5t152.5 57.5t153.5 -57t61.5 -148q0 -62 -29.5 -109.5t-80.5 -72.5l544 -1460h-141l-133 352h-762l-133 -352h-137zM344 467h684l-336 930zM571 1642q0 -53 33.5 -86.5t87.5 -33.5q55 0 89 33.5t34 86.5 q0 51 -33.5 85t-89.5 34q-54 0 -87.5 -34t-33.5 -85z" />
<glyph unicode="&#xc6;" horiz-adv-x="2056" d="M35 0l573 1415q23 55 60.5 82t99.5 27h1178v-121h-820v-565h736v-115h-736v-604h828v-119h-828q-64 0 -97.5 32t-33.5 91v223h-682l-135 -346h-143zM358 463h637v940h-262z" />
<glyph unicode="&#xc7;" horiz-adv-x="1353" d="M119 758q0 193 51 343t141.5 243t210 140.5t262.5 47.5q151 0 394 -76l96 -29l-25 -122l-100 30q-235 72 -363 72q-250 0 -389 -160.5t-139 -488.5q0 -329 140.5 -489t389.5 -160q132 0 361 71l100 31l25 -123l-96 -31q-236 -73 -394 -73q-147 0 -266 45.5t-209.5 137 t-140 242t-49.5 349.5zM588 -360l24 79q82 -32 148 -32q102 0 102 69q0 45 -47.5 59.5t-138.5 8.5l-6 10l84 166h75l-51 -106q80 0 131.5 -34.5t51.5 -99.5q0 -70 -53 -115.5t-146 -45.5q-82 0 -174 41z" />
<glyph unicode="&#xc8;" horiz-adv-x="1241" d="M168 123v1276q0 60 35 92.5t98 32.5h821v-121h-821v-565h723v-117h-723v-602h827v-119h-827q-63 0 -98 32.5t-35 90.5zM418 1915h192l166 -162q23 -23 23 -51q0 -22 -17 -39.5t-43 -17.5q-27 0 -51 24z" />
<glyph unicode="&#xc9;" horiz-adv-x="1241" d="M168 123v1276q0 60 35 92.5t98 32.5h821v-121h-821v-565h723v-117h-723v-602h827v-119h-827q-63 0 -98 32.5t-35 90.5zM512 1702q0 28 23 51l165 162h193l-270 -246q-24 -24 -52 -24q-26 0 -42.5 17.5t-16.5 39.5z" />
<glyph unicode="&#xca;" horiz-adv-x="1241" d="M168 123v1276q0 60 35 92.5t98 32.5h821v-121h-821v-565h723v-117h-723v-602h827v-119h-827q-63 0 -98 32.5t-35 90.5zM307 1659l256 254q37 37 84 37q52 0 84 -37l258 -254h-182l-160 184l-160 -184h-180z" />
<glyph unicode="&#xcb;" horiz-adv-x="1241" d="M168 123v1276q0 60 35 92.5t98 32.5h821v-121h-821v-565h723v-117h-723v-602h827v-119h-827q-63 0 -98 32.5t-35 90.5zM328 1780q0 46 24.5 74t65.5 28t65.5 -28t24.5 -74t-24.5 -73.5t-65.5 -27.5t-65.5 27.5t-24.5 73.5zM788 1780q0 46 25 74t66 28q42 0 67 -28t25 -74 t-25 -73.5t-67 -27.5q-41 0 -66 27.5t-25 73.5z" />
<glyph unicode="&#xcc;" horiz-adv-x="471" d="M10 1913h193l166 -162q22 -22 22 -51q0 -22 -16.5 -40t-42.5 -18t-51 25zM168 0v1524h133v-1524h-133z" />
<glyph unicode="&#xcd;" horiz-adv-x="471" d="M168 0v1524h133v-1524h-133zM168 1700q0 29 22 51l166 162h193l-270 -246q-25 -25 -52 -25q-26 0 -42.5 18t-16.5 40z" />
<glyph unicode="&#xce;" horiz-adv-x="471" d="M-104 1659l256 254q37 37 84 37q51 0 83 -37l259 -254h-183l-159 184l-160 -184h-180zM168 0v1524h133v-1524h-133z" />
<glyph unicode="&#xcf;" horiz-adv-x="471" d="M168 0v1524h133v-1524h-133zM168 1782q0 46 24.5 74t65.5 28t65.5 -28t24.5 -74t-24.5 -73.5t-65.5 -27.5t-65.5 27.5t-24.5 73.5zM629 1782q0 46 24.5 74t65.5 28q42 0 67 -28t25 -74t-25 -73.5t-67 -27.5q-41 0 -65.5 27.5t-24.5 73.5z" />
<glyph unicode="&#xd0;" horiz-adv-x="1478" d="M31 723v115h143v561q0 60 34 92.5t97 32.5h397q303 0 483.5 -204.5t180.5 -561.5q0 -178 -49 -321.5t-137.5 -239t-212 -146.5t-271.5 -51h-391q-63 0 -97 32t-34 91v600h-143zM307 119h383q258 0 400.5 167.5t142.5 471.5q0 298 -148 473.5t-409 175.5h-369v-569h469 v-115h-469v-604z" />
<glyph unicode="&#xd1;" horiz-adv-x="1492" d="M168 0v1436q0 51 26 76.5t70 25.5q67 0 107 -61l831 -1307v1354h123v-1434q0 -51 -25.5 -75.5t-70.5 -24.5q-65 0 -105 61l-831 1307v-1358h-125zM346 1722q39 102 108 152.5t142 50.5q81 0 147 -49l99 -72q46 -32 92 -32q44 0 81 29.5t68 105.5l97 -52 q-39 -102 -107.5 -153t-140.5 -51q-84 0 -150 49l-96 69q-46 35 -94 35q-45 0 -83 -29t-69 -106z" />
<glyph unicode="&#xd2;" horiz-adv-x="1597" d="M113 758q0 364 189.5 569t502.5 205q310 0 495 -204t185 -570q0 -186 -50 -333t-141 -243.5t-218 -147t-281 -50.5q-312 0 -497 203.5t-185 570.5zM246 758q0 -314 149.5 -487t407.5 -173q257 0 402 171.5t145 488.5q0 312 -147 483.5t-404 171.5q-260 0 -406.5 -171 t-146.5 -484zM569 1913h193l166 -162q22 -22 22 -51q0 -22 -16.5 -40t-42.5 -18t-51 25z" />
<glyph unicode="&#xd3;" horiz-adv-x="1597" d="M113 758q0 364 189.5 569t502.5 205q310 0 495 -204t185 -570q0 -186 -50 -333t-141 -243.5t-218 -147t-281 -50.5q-312 0 -497 203.5t-185 570.5zM246 758q0 -314 149.5 -487t407.5 -173q257 0 402 171.5t145 488.5q0 312 -147 483.5t-404 171.5q-260 0 -406.5 -171 t-146.5 -484zM666 1700q0 29 22 51l166 162h193l-271 -246q-25 -25 -51 -25t-42.5 18t-16.5 40z" />
<glyph unicode="&#xd4;" horiz-adv-x="1597" d="M113 758q0 364 189.5 569t502.5 205q310 0 495 -204t185 -570q0 -186 -50 -333t-141 -243.5t-218 -147t-281 -50.5q-312 0 -497 203.5t-185 570.5zM246 758q0 -314 149.5 -487t407.5 -173q257 0 402 171.5t145 488.5q0 312 -147 483.5t-404 171.5q-260 0 -406.5 -171 t-146.5 -484zM465 1659l256 254q37 37 84 37q52 0 84 -37l258 -254h-182l-160 184l-160 -184h-180z" />
<glyph unicode="&#xd5;" horiz-adv-x="1597" d="M113 758q0 364 189.5 569t502.5 205q310 0 495 -204t185 -570q0 -186 -50 -333t-141 -243.5t-218 -147t-281 -50.5q-312 0 -497 203.5t-185 570.5zM246 758q0 -314 149.5 -487t407.5 -173q257 0 402 171.5t145 488.5q0 312 -147 483.5t-404 171.5q-260 0 -406.5 -171 t-146.5 -484zM385 1726q39 102 108 152.5t142 50.5q81 0 147 -49l99 -72q46 -32 92 -32q44 0 81 29.5t68 105.5l97 -51q-39 -102 -107.5 -153.5t-140.5 -51.5q-84 0 -150 49l-96 70q-45 34 -94 34q-45 0 -83 -29t-69 -106z" />
<glyph unicode="&#xd6;" horiz-adv-x="1597" d="M113 758q0 364 189.5 569t502.5 205q310 0 495 -204t185 -570q0 -186 -50 -333t-141 -243.5t-218 -147t-281 -50.5q-312 0 -497 203.5t-185 570.5zM246 758q0 -314 149.5 -487t407.5 -173q257 0 402 171.5t145 488.5q0 312 -147 483.5t-404 171.5q-260 0 -406.5 -171 t-146.5 -484zM481 1780q0 46 24.5 74t65.5 28t66 -28t25 -74t-25 -73.5t-66 -27.5t-65.5 27.5t-24.5 73.5zM942 1780q0 46 24.5 74t65.5 28q42 0 67 -28t25 -74t-25 -73.5t-67 -27.5q-41 0 -65.5 27.5t-24.5 73.5z" />
<glyph unicode="&#xd8;" horiz-adv-x="1597" d="M113 758q0 364 189.5 569t502.5 205q172 0 315 -70l88 160h119l-117 -215q132 -97 203.5 -262t71.5 -387q0 -186 -50 -333t-141 -243.5t-218 -147t-281 -50.5q-187 0 -318 67l-86 -160h-119l115 213q-133 98 -203.5 263.5t-70.5 390.5zM246 758q0 -184 52 -322t148 -221 l617 1139q-119 61 -264 61q-260 0 -406.5 -172t-146.5 -485zM535 158q115 -62 268 -62q257 0 402 172.5t145 489.5q0 368 -201 538z" />
<glyph unicode="&#xd9;" horiz-adv-x="1464" d="M158 537v987h133v-987q0 -215 111 -330t329 -115q224 0 333.5 114t109.5 331v987h131v-987q0 -265 -149.5 -415.5t-424.5 -150.5q-274 0 -423.5 150.5t-149.5 415.5zM508 1915h192l166 -162q23 -23 23 -51q0 -22 -17 -39.5t-43 -17.5q-27 0 -51 24z" />
<glyph unicode="&#xda;" horiz-adv-x="1464" d="M158 537v987h133v-987q0 -215 111 -330t329 -115q224 0 333.5 114t109.5 331v987h131v-987q0 -265 -149.5 -415.5t-424.5 -150.5q-274 0 -423.5 150.5t-149.5 415.5zM604 1702q0 28 23 51l166 162h192l-270 -246q-24 -24 -51 -24q-26 0 -43 17.5t-17 39.5z" />
<glyph unicode="&#xdb;" horiz-adv-x="1464" d="M158 537v987h133v-987q0 -215 111 -330t329 -115q224 0 333.5 114t109.5 331v987h131v-987q0 -265 -149.5 -415.5t-424.5 -150.5q-274 0 -423.5 150.5t-149.5 415.5zM399 1659l256 254q37 37 84 37q52 0 84 -37l258 -254h-182l-160 184l-159 -184h-181z" />
<glyph unicode="&#xdc;" horiz-adv-x="1464" d="M158 537v987h133v-987q0 -215 111 -330t329 -115q224 0 333.5 114t109.5 331v987h131v-987q0 -265 -149.5 -415.5t-424.5 -150.5q-274 0 -423.5 150.5t-149.5 415.5zM424 1780q0 46 24.5 74t65.5 28t65.5 -28t24.5 -74t-24.5 -73.5t-65.5 -27.5t-65.5 27.5t-24.5 73.5z M885 1780q0 46 24.5 74t65.5 28q42 0 67 -28t25 -74t-25 -73.5t-67 -27.5q-41 0 -65.5 27.5t-24.5 73.5z" />
<glyph unicode="&#xdd;" horiz-adv-x="1306" d="M35 1524h153l480 -744l465 744h149l-551 -862v-662h-135v657zM573 1702q0 28 23 51l166 162h192l-270 -246q-24 -24 -51 -24q-26 0 -43 17.5t-17 39.5z" />
<glyph unicode="&#xde;" horiz-adv-x="1267" d="M168 0v1524h127v-269h450q190 0 311.5 -123t121.5 -333q0 -212 -126 -334.5t-329 -122.5h-428v-342h-127zM295 457h428q155 0 243.5 91t88.5 253q0 158 -87 250t-231 92h-442v-686z" />
<glyph unicode="&#xdf;" horiz-adv-x="1155" d="M154 0v1163q0 106 31 187t86 128.5t123.5 71t150.5 23.5q176 0 287.5 -98t111.5 -273q0 -130 -78 -241l-118 -164l161 -135q145 -120 148 -291q0 -168 -107.5 -269.5t-287.5 -101.5h-173v113h168q143 0 209 69t66 185t-109 208l-141 119q-47 41 -47 88t27 86l96 136 q63 87 63 198q0 114 -75.5 185t-202.5 71q-132 0 -198 -75.5t-66 -219.5v-1163h-125z" />
<glyph unicode="&#xe0;" horiz-adv-x="1206" d="M109 289q0 72 23 128t62 92.5t95 60.5t117 34t133 10h350v142q0 250 -275 250q-124 0 -354 -66l-80 -22l-24 118l75 21q257 69 385 69q179 0 287.5 -91t108.5 -279v-594l133 -82l-49 -96l-92 55q-71 38 -148 18l-84 -22q-181 -49 -307 -49q-168 0 -262 80t-94 223z M236 293q0 -195 247 -195q108 0 275 41l131 29v336h-352q-148 0 -224.5 -50t-76.5 -161zM373 1563h192l166 -162q23 -23 23 -51q0 -22 -17 -40t-43 -18t-51 25z" />
<glyph unicode="&#xe1;" horiz-adv-x="1206" d="M109 289q0 72 23 128t62 92.5t95 60.5t117 34t133 10h350v142q0 250 -275 250q-124 0 -354 -66l-80 -22l-24 118l75 21q257 69 385 69q179 0 287.5 -91t108.5 -279v-594l133 -82l-49 -96l-92 55q-71 38 -148 18l-84 -22q-181 -49 -307 -49q-168 0 -262 80t-94 223z M236 293q0 -195 247 -195q108 0 275 41l131 29v336h-352q-148 0 -224.5 -50t-76.5 -161zM496 1350q0 29 22 51l166 162h193l-271 -246q-25 -25 -51 -25t-42.5 18t-16.5 40z" />
<glyph unicode="&#xe2;" horiz-adv-x="1206" d="M109 289q0 72 23 128t62 92.5t95 60.5t117 34t133 10h350v142q0 250 -275 250q-124 0 -354 -66l-80 -22l-24 118l75 21q257 69 385 69q179 0 287.5 -91t108.5 -279v-594l133 -82l-49 -96l-92 55q-71 38 -148 18l-84 -22q-181 -49 -307 -49q-168 0 -262 80t-94 223z M236 293q0 -195 247 -195q108 0 275 41l131 29v336h-352q-148 0 -224.5 -50t-76.5 -161zM276 1276l256 254q37 37 84 37q52 0 84 -37l258 -254h-182l-160 184l-159 -184h-181z" />
<glyph unicode="&#xe3;" horiz-adv-x="1206" d="M109 289q0 72 23 128t62 92.5t95 60.5t117 34t133 10h350v142q0 250 -275 250q-124 0 -354 -66l-80 -22l-24 118l75 21q257 69 385 69q179 0 287.5 -91t108.5 -279v-594l133 -82l-49 -96l-92 55q-71 38 -148 18l-84 -22q-181 -49 -307 -49q-168 0 -262 80t-94 223z M193 1354q39 102 107.5 152t141.5 50q82 0 148 -49l98 -71q47 -33 92 -33t82 29.5t68 105.5l96 -51q-39 -102 -107.5 -153.5t-140.5 -51.5q-83 0 -149 49l-97 70q-46 35 -94 35q-96 0 -151 -136zM236 293q0 -195 247 -195q108 0 275 41l131 29v336h-352q-148 0 -224.5 -50 t-76.5 -161z" />
<glyph unicode="&#xe4;" horiz-adv-x="1206" d="M109 289q0 72 23 128t62 92.5t95 60.5t117 34t133 10h350v142q0 250 -275 250q-124 0 -354 -66l-80 -22l-24 118l75 21q257 69 385 69q179 0 287.5 -91t108.5 -279v-594l133 -82l-49 -96l-92 55q-71 38 -148 18l-84 -22q-181 -49 -307 -49q-168 0 -262 80t-94 223z M236 293q0 -195 247 -195q108 0 275 41l131 29v336h-352q-148 0 -224.5 -50t-76.5 -161zM303 1466q0 46 24.5 74.5t65.5 28.5t65.5 -28.5t24.5 -74.5t-24.5 -73t-65.5 -27t-65.5 27t-24.5 73zM764 1466q0 46 24.5 74.5t65.5 28.5q42 0 67 -28.5t25 -74.5t-24.5 -73 t-67.5 -27q-41 0 -65.5 27t-24.5 73z" />
<glyph unicode="&#xe5;" horiz-adv-x="1206" d="M109 289q0 72 23 128t62 92.5t95 60.5t117 34t133 10h350v142q0 250 -275 250q-124 0 -354 -66l-80 -22l-24 118l75 21q257 69 385 69q179 0 287.5 -91t108.5 -279v-594l133 -82l-49 -96l-92 55q-71 38 -148 18l-84 -22q-181 -49 -307 -49q-168 0 -262 80t-94 223z M236 293q0 -195 247 -195q108 0 275 41l131 29v336h-352q-148 0 -224.5 -50t-76.5 -161zM387 1427q0 91 60.5 148t152.5 57t153.5 -57t61.5 -148q0 -90 -62 -148t-153 -58q-90 0 -151.5 58t-61.5 148zM479 1427q0 -53 33.5 -86.5t87.5 -33.5q55 0 89 33.5t34 86.5 q0 51 -33.5 85t-89.5 34q-54 0 -87.5 -34t-33.5 -85z" />
<glyph unicode="&#xe6;" horiz-adv-x="1966" d="M104 287q0 72 23.5 129t63 93.5t95 60.5t117 34t132.5 10h352v138q0 254 -273 254q-124 0 -354 -66l-80 -22l-24 118l75 21q257 69 385 69q133 0 229 -53t136 -164q62 110 167 165.5t232 55.5q226 0 358 -138.5t132 -409.5q0 -39 -20 -60.5t-56 -21.5h-776 q4 -97 35.5 -172.5t85.5 -122t123.5 -70.5t152.5 -24q124 0 311 57l101 33l24 -117l-96 -33q-105 -36 -181 -49.5t-163 -13.5q-165 0 -287 69q-67 36 -153 17l-195 -45q-194 -43 -315 -43q-168 0 -262.5 80t-94.5 221zM233 293q0 -97 64 -146t184 -49q103 0 279 39l223 51 q-85 135 -94 316h-357q-147 0 -223 -50t-76 -161zM1018 614h719q0 183 -89.5 294.5t-269.5 111.5q-160 0 -255.5 -108.5t-104.5 -297.5z" />
<glyph unicode="&#xe7;" horiz-adv-x="1054" d="M106 557q0 273 133 420t357 147q108 0 311 -55l80 -20l-24 -121l-80 20q-212 56 -281 56q-362 0 -362 -447q0 -446 364 -446q90 0 279 53l80 20l24 -118l-80 -23q-195 -55 -311 -55q-228 0 -359 141t-131 428zM397 -360l25 79q82 -32 147 -32q103 0 103 69q0 45 -48 59.5 t-139 8.5l-6 10l84 166h76l-51 -106q80 0 131 -34.5t51 -99.5q0 -70 -53 -115.5t-146 -45.5q-82 0 -174 41z" />
<glyph unicode="&#xe8;" horiz-adv-x="1187" d="M106 555q0 145 40 257.5t109 180.5t156.5 102.5t188.5 34.5q226 0 358 -138.5t132 -409.5q0 -39 -19 -60.5t-55 -21.5h-776q4 -97 35.5 -172.5t85.5 -122t123.5 -70.5t152.5 -24q125 0 309 57l101 33l26 -117l-98 -33q-105 -35 -182 -49t-162 -14q-240 0 -382.5 145 t-142.5 422zM240 614h718q0 182 -90 294t-270 112q-159 0 -254 -109t-104 -297zM369 1563h192l166 -162q23 -23 23 -51q0 -22 -17 -40t-43 -18t-51 25z" />
<glyph unicode="&#xe9;" horiz-adv-x="1187" d="M106 555q0 145 40 257.5t109 180.5t156.5 102.5t188.5 34.5q226 0 358 -138.5t132 -409.5q0 -39 -19 -60.5t-55 -21.5h-776q4 -97 35.5 -172.5t85.5 -122t123.5 -70.5t152.5 -24q125 0 309 57l101 33l26 -117l-98 -33q-105 -35 -182 -49t-162 -14q-240 0 -382.5 145 t-142.5 422zM240 614h718q0 182 -90 294t-270 112q-159 0 -254 -109t-104 -297zM514 1350q0 28 23 51l165 162h193l-270 -246q-25 -25 -52 -25q-26 0 -42.5 18t-16.5 40z" />
<glyph unicode="&#xea;" horiz-adv-x="1187" d="M106 555q0 145 40 257.5t109 180.5t156.5 102.5t188.5 34.5q226 0 358 -138.5t132 -409.5q0 -39 -19 -60.5t-55 -21.5h-776q4 -97 35.5 -172.5t85.5 -122t123.5 -70.5t152.5 -24q125 0 309 57l101 33l26 -117l-98 -33q-105 -35 -182 -49t-162 -14q-240 0 -382.5 145 t-142.5 422zM240 614h718q0 182 -90 294t-270 112q-159 0 -254 -109t-104 -297zM266 1276l256 254q37 37 84 37q52 0 84 -37l258 -254h-182l-160 184l-160 -184h-180z" />
<glyph unicode="&#xeb;" horiz-adv-x="1187" d="M106 555q0 145 40 257.5t109 180.5t156.5 102.5t188.5 34.5q226 0 358 -138.5t132 -409.5q0 -39 -19 -60.5t-55 -21.5h-776q4 -97 35.5 -172.5t85.5 -122t123.5 -70.5t152.5 -24q125 0 309 57l101 33l26 -117l-98 -33q-105 -35 -182 -49t-162 -14q-240 0 -382.5 145 t-142.5 422zM240 614h718q0 182 -90 294t-270 112q-159 0 -254 -109t-104 -297zM287 1466q0 46 24.5 74.5t65.5 28.5t65.5 -28.5t24.5 -74.5t-24.5 -73t-65.5 -27t-65.5 27t-24.5 73zM748 1466q0 46 24.5 74.5t65.5 28.5q42 0 67 -28.5t25 -74.5t-24.5 -73t-67.5 -27 q-41 0 -65.5 27t-24.5 73z" />
<glyph unicode="&#xec;" horiz-adv-x="477" d="M-20 1563h192l166 -162q22 -22 22 -51q0 -22 -16.5 -40t-42.5 -18t-51 25zM174 0v1114h131v-1114h-131z" />
<glyph unicode="&#xed;" horiz-adv-x="477" d="M174 0v1114h131v-1114h-131zM174 1350q0 28 23 51l165 162h193l-270 -246q-25 -25 -52 -25q-26 0 -42.5 18t-16.5 40z" />
<glyph unicode="&#xee;" horiz-adv-x="477" d="M174 0v1114h131v-1114h-131zM174 1276l256 254q37 37 84 37q52 0 84 -37l258 -254h-182l-160 184l-160 -184h-180z" />
<glyph unicode="&#xef;" horiz-adv-x="477" d="M-78 1466q0 46 24.5 74.5t65.5 28.5t65.5 -28.5t24.5 -74.5t-24.5 -73t-65.5 -27t-65.5 27t-24.5 73zM174 0v1114h131v-1114h-131zM383 1466q0 46 24.5 74.5t65.5 28.5q42 0 67 -28.5t25 -74.5t-24.5 -73t-67.5 -27q-41 0 -65.5 27t-24.5 73z" />
<glyph unicode="&#xf0;" horiz-adv-x="1257" d="M129 532q0 107 29 199.5t87.5 167t157 117.5t226.5 43q121 0 368 -70v98q0 130 -61 228l-299 -166v125l229 123q-83 53 -215 53h-131v113h129q217 0 328 -99l174 101v-127l-104 -58q75 -126 75 -293v-581q0 -233 -129 -375.5t-368 -142.5q-159 0 -273 74.5t-168.5 195.5 t-54.5 274zM256 532q0 -195 97 -310.5t276 -115.5q186 0 277 108t91 298v362q-222 64 -358 64q-383 0 -383 -406z" />
<glyph unicode="&#xf1;" horiz-adv-x="1177" d="M158 0v938q0 57 26 88t80 45q195 51 352 51q106 0 186 -30.5t127.5 -85.5t71 -126.5t23.5 -158.5v-721h-125v709q0 292 -297 292q-130 0 -317 -49v-952h-127zM184 1354q39 102 108 152t142 50q82 0 148 -49l98 -71q47 -33 92 -33t82 29.5t68 105.5l96 -51 q-39 -102 -107.5 -153.5t-140.5 -51.5q-83 0 -149 49l-97 70q-46 35 -94 35q-96 0 -151 -136z" />
<glyph unicode="&#xf2;" horiz-adv-x="1236" d="M106 557q0 269 140.5 419t376.5 150t371.5 -149t135.5 -420t-138.5 -420t-375.5 -149t-373.5 150.5t-136.5 418.5zM240 557q0 -220 99.5 -339.5t283.5 -119.5q183 0 280.5 119.5t97.5 339.5q0 216 -101 336.5t-284 120.5q-182 0 -279 -120t-97 -337zM410 1563h192 l166 -162q23 -23 23 -51q0 -22 -17 -40t-43 -18t-51 25z" />
<glyph unicode="&#xf3;" horiz-adv-x="1236" d="M106 557q0 269 140.5 419t376.5 150t371.5 -149t135.5 -420t-138.5 -420t-375.5 -149t-373.5 150.5t-136.5 418.5zM240 557q0 -220 99.5 -339.5t283.5 -119.5q183 0 280.5 119.5t97.5 339.5q0 216 -101 336.5t-284 120.5q-182 0 -279 -120t-97 -337zM475 1350q0 28 23 51 l166 162h192l-270 -246q-25 -25 -51 -25t-43 18t-17 40z" />
<glyph unicode="&#xf4;" horiz-adv-x="1236" d="M106 557q0 269 140.5 419t376.5 150t371.5 -149t135.5 -420t-138.5 -420t-375.5 -149t-373.5 150.5t-136.5 418.5zM240 557q0 -220 99.5 -339.5t283.5 -119.5q183 0 280.5 119.5t97.5 339.5q0 216 -101 336.5t-284 120.5q-182 0 -279 -120t-97 -337zM285 1276l256 254 q37 37 84 37q52 0 84 -37l258 -254h-183l-159 184l-160 -184h-180z" />
<glyph unicode="&#xf5;" horiz-adv-x="1236" d="M106 557q0 269 140.5 419t376.5 150t371.5 -149t135.5 -420t-138.5 -420t-375.5 -149t-373.5 150.5t-136.5 418.5zM213 1354q39 102 108 152t142 50q81 0 147 -49l99 -71q47 -33 92 -33q44 0 81 29.5t68 105.5l97 -51q-39 -102 -107.5 -153.5t-140.5 -51.5q-84 0 -150 49 l-96 70q-46 35 -94 35q-97 0 -152 -136zM240 557q0 -220 99.5 -339.5t283.5 -119.5q183 0 280.5 119.5t97.5 339.5q0 216 -101 336.5t-284 120.5q-182 0 -279 -120t-97 -337z" />
<glyph unicode="&#xf6;" horiz-adv-x="1236" d="M106 557q0 269 140.5 419t376.5 150t371.5 -149t135.5 -420t-138.5 -420t-375.5 -149t-373.5 150.5t-136.5 418.5zM240 557q0 -220 99.5 -339.5t283.5 -119.5q183 0 280.5 119.5t97.5 339.5q0 216 -101 336.5t-284 120.5q-182 0 -279 -120t-97 -337zM307 1466 q0 46 24.5 74.5t65.5 28.5t65.5 -28.5t24.5 -74.5t-24.5 -73t-65.5 -27t-65.5 27t-24.5 73zM768 1466q0 46 24.5 74.5t65.5 28.5q42 0 67 -28.5t25 -74.5t-24.5 -73t-67.5 -27q-41 0 -65.5 27t-24.5 73z" />
<glyph unicode="&#xf7;" d="M121 541v127h946v-127h-946zM502 180q0 45 24 73t66 28q41 0 65.5 -28t24.5 -73t-24.5 -73.5t-65.5 -28.5q-42 0 -66 28.5t-24 73.5zM502 1024q0 45 24 72.5t66 27.5q41 0 65.5 -27.5t24.5 -72.5t-24.5 -73.5t-65.5 -28.5q-42 0 -66 28.5t-24 73.5z" />
<glyph unicode="&#xf8;" horiz-adv-x="1236" d="M106 557q0 269 140.5 419t376.5 150q125 0 227 -45l65 127h111l-92 -178q95 -70 145.5 -190t50.5 -283q0 -271 -138.5 -420t-375.5 -149q-120 0 -210 37l-70 -131h-113l94 178q-102 70 -156.5 193t-54.5 292zM240 557q0 -262 135 -379l420 799q-80 39 -179 39 q-181 0 -278.5 -121t-97.5 -338zM459 129q73 -31 164 -31q183 0 280.5 119.5t97.5 339.5q0 244 -127 365z" />
<glyph unicode="&#xf9;" horiz-adv-x="1181" d="M158 391v723h125v-711q0 -290 297 -290q129 0 317 47v954h127v-940q0 -56 -26 -86.5t-80 -44.5q-195 -51 -353 -51q-106 0 -186 30.5t-127.5 85t-70.5 125.5t-23 158zM350 1563h193l166 -162q22 -22 22 -51q0 -22 -16.5 -40t-42.5 -18t-51 25z" />
<glyph unicode="&#xfa;" horiz-adv-x="1181" d="M158 391v723h125v-711q0 -290 297 -290q129 0 317 47v954h127v-940q0 -56 -26 -86.5t-80 -44.5q-195 -51 -353 -51q-106 0 -186 30.5t-127.5 85t-70.5 125.5t-23 158zM465 1350q0 29 22 51l166 162h193l-271 -246q-25 -25 -51 -25t-42.5 18t-16.5 40z" />
<glyph unicode="&#xfb;" horiz-adv-x="1181" d="M158 391v723h125v-711q0 -290 297 -290q129 0 317 47v954h127v-940q0 -56 -26 -86.5t-80 -44.5q-195 -51 -353 -51q-106 0 -186 30.5t-127.5 85t-70.5 125.5t-23 158zM254 1276l256 254q37 37 84 37q52 0 84 -37l258 -254h-182l-160 184l-160 -184h-180z" />
<glyph unicode="&#xfc;" horiz-adv-x="1181" d="M158 391v723h125v-711q0 -290 297 -290q129 0 317 47v954h127v-940q0 -56 -26 -86.5t-80 -44.5q-195 -51 -353 -51q-106 0 -186 30.5t-127.5 85t-70.5 125.5t-23 158zM274 1466q0 46 25 74.5t66 28.5t65.5 -28.5t24.5 -74.5t-24.5 -73t-65.5 -27t-66 27t-25 73zM735 1466 q0 46 24.5 74.5t65.5 28.5q42 0 67.5 -28.5t25.5 -74.5t-25 -73t-68 -27q-41 0 -65.5 27t-24.5 73z" />
<glyph unicode="&#xfd;" horiz-adv-x="1077" d="M55 1114h146l372 -1005l318 1005h139l-422 -1264q-74 -223 -297 -223q-90 0 -209 35l21 119q140 -35 190 -35q77 0 114 35t58 108l19 60zM457 1350q0 29 22 51l166 162h193l-271 -246q-25 -25 -51 -25t-42.5 18t-16.5 40z" />
<glyph unicode="&#xfe;" horiz-adv-x="1204" d="M158 -381v1931l123 27v-516q211 61 337 61q237 0 361.5 -146t124.5 -417q0 -270 -128.5 -418.5t-363.5 -148.5q-122 0 -331 67v-413zM281 172q231 -59 325 -59q192 0 280.5 118t88.5 328q0 207 -89 324.5t-282 117.5q-108 0 -323 -55v-774z" />
<glyph unicode="&#xff;" horiz-adv-x="1077" d="M55 1114h146l372 -1005l318 1005h139l-422 -1264q-74 -223 -297 -223q-90 0 -209 35l21 119q140 -35 190 -35q77 0 114 35t58 108l19 60zM238 1466q0 46 24.5 74.5t65.5 28.5t65.5 -28.5t24.5 -74.5t-24.5 -73t-65.5 -27t-65.5 27t-24.5 73zM698 1466q0 46 24.5 74.5 t65.5 28.5q42 0 67.5 -28.5t25.5 -74.5t-25 -73t-68 -27q-41 0 -65.5 27t-24.5 73z" />
<glyph unicode="&#x152;" horiz-adv-x="2242" d="M113 758q0 356 183 561t486 205h1342v-121h-819v-565h723v-117h-723v-602h825v-119h-1342q-148 0 -272 51t-213.5 146.5t-139.5 239t-50 321.5zM248 758q0 -304 143.5 -471.5t403.5 -167.5h376v1286h-362q-263 0 -412 -174.5t-149 -472.5z" />
<glyph unicode="&#x153;" horiz-adv-x="2082" d="M106 557q0 269 140.5 419t376.5 150q160 0 273.5 -70t170.5 -204q58 138 171.5 208t256.5 70q226 0 358 -138.5t132 -409.5q0 -39 -19 -60.5t-55 -21.5h-776q4 -97 35.5 -172.5t85.5 -122t123.5 -70.5t152.5 -24q125 0 309 57l101 33l26 -117l-98 -33q-105 -35 -182 -49 t-162 -14q-165 0 -283.5 69t-177.5 205q-58 -133 -173.5 -203.5t-275.5 -70.5q-237 0 -373.5 150.5t-136.5 418.5zM240 557q0 -220 99.5 -339.5t283.5 -119.5q183 0 280.5 119.5t97.5 339.5q0 216 -101 336.5t-284 120.5q-182 0 -279 -120t-97 -337zM1135 614h718 q0 182 -90 294t-270 112q-159 0 -254 -109t-104 -297z" />
<glyph unicode="&#x178;" horiz-adv-x="1306" d="M35 1524h153l480 -744l465 744h149l-551 -862v-662h-135v657zM350 1782q0 46 24.5 74t65.5 28t65.5 -28t24.5 -74t-24.5 -73.5t-65.5 -27.5t-65.5 27.5t-24.5 73.5zM811 1782q0 46 24.5 74t65.5 28q42 0 67 -28t25 -74t-25 -73.5t-67 -27.5q-41 0 -65.5 27.5t-24.5 73.5z " />
<glyph unicode="&#x2c6;" horiz-adv-x="1071" d="M236 1276l256 254q37 37 83 37q52 0 84 -37l259 -254h-183l-160 184l-159 -184h-180z" />
<glyph unicode="&#x2dc;" horiz-adv-x="1071" d="M131 1354q39 102 108 152t142 50q81 0 147 -49l99 -71q47 -33 92 -33q44 0 81 29.5t68 105.5l97 -51q-39 -102 -107.5 -153.5t-140.5 -51.5q-84 0 -150 49l-96 70q-46 35 -94 35q-97 0 -152 -136z" />
<glyph unicode="&#x2000;" horiz-adv-x="975" />
<glyph unicode="&#x2001;" horiz-adv-x="1950" />
<glyph unicode="&#x2002;" horiz-adv-x="975" />
<glyph unicode="&#x2003;" horiz-adv-x="1950" />
<glyph unicode="&#x2004;" horiz-adv-x="650" />
<glyph unicode="&#x2005;" horiz-adv-x="487" />
<glyph unicode="&#x2006;" horiz-adv-x="325" />
<glyph unicode="&#x2007;" horiz-adv-x="325" />
<glyph unicode="&#x2008;" horiz-adv-x="243" />
<glyph unicode="&#x2009;" horiz-adv-x="390" />
<glyph unicode="&#x200a;" horiz-adv-x="108" />
<glyph unicode="&#x2010;" horiz-adv-x="833" d="M129 606v127h578v-127h-578z" />
<glyph unicode="&#x2011;" horiz-adv-x="833" d="M129 606v127h578v-127h-578z" />
<glyph unicode="&#x2012;" horiz-adv-x="833" d="M129 606v127h578v-127h-578z" />
<glyph unicode="&#x2013;" d="M123 604v129h944v-129h-944z" />
<glyph unicode="&#x2014;" horiz-adv-x="2017" d="M117 604v127h1784v-127h-1784z" />
<glyph unicode="&#x2018;" horiz-adv-x="419" d="M90 1163l94 342q19 58 70 58q38 0 54 -26t7 -64l-79 -310h-146z" />
<glyph unicode="&#x2019;" horiz-adv-x="419" d="M102 1253l82 310h144l-95 -344q-15 -56 -67 -56q-39 0 -56 26t-8 64z" />
<glyph unicode="&#x201a;" horiz-adv-x="419" d="M102 -96l82 309h144l-95 -344q-15 -55 -67 -55q-39 0 -56 26t-8 64z" />
<glyph unicode="&#x201c;" horiz-adv-x="772" d="M90 1163l94 342q19 58 70 58q38 0 54 -26t7 -64l-79 -310h-146zM451 1163l94 342q16 58 67 58q39 0 56 -26t8 -64l-82 -310h-143z" />
<glyph unicode="&#x201d;" horiz-adv-x="772" d="M102 1253l82 310h144l-95 -344q-15 -56 -67 -56q-39 0 -56 26t-8 64zM463 1253l80 310h145l-94 -344q-18 -56 -70 -56q-38 0 -54 26t-7 64z" />
<glyph unicode="&#x201e;" horiz-adv-x="772" d="M102 -96l82 309h144l-95 -344q-15 -55 -67 -55q-39 0 -56 26t-8 64zM463 -96l80 309h145l-94 -344q-18 -55 -70 -55q-38 0 -54 26t-7 64z" />
<glyph unicode="&#x2022;" horiz-adv-x="872" d="M211 682q0 122 63 191t172 69q111 0 174.5 -69t63.5 -191q0 -124 -63.5 -193t-174.5 -69q-109 0 -172 69t-63 193z" />
<glyph unicode="&#x2026;" horiz-adv-x="1259" d="M125 82q0 47 24.5 74.5t65.5 27.5t65.5 -27.5t24.5 -74.5q0 -46 -24.5 -73t-65.5 -27t-65.5 27t-24.5 73zM545 82q0 47 24.5 74.5t65.5 27.5t65.5 -27.5t24.5 -74.5q0 -46 -24.5 -73t-65.5 -27t-65.5 27t-24.5 73zM965 82q0 47 24.5 74.5t65.5 27.5t65.5 -27.5 t24.5 -74.5q0 -46 -24.5 -73t-65.5 -27t-65.5 27t-24.5 73z" />
<glyph unicode="&#x202f;" horiz-adv-x="390" />
<glyph unicode="&#x2039;" horiz-adv-x="700" d="M100 573q0 48 41 89l310 299h159l-391 -388l397 -383h-163l-312 297q-41 41 -41 86z" />
<glyph unicode="&#x203a;" horiz-adv-x="700" d="M82 190l399 383l-393 388h162l309 -299q39 -39 39 -89q0 -45 -41 -86l-311 -297h-164z" />
<glyph unicode="&#x205f;" horiz-adv-x="487" />
<glyph unicode="&#x20ac;" d="M68 565v117h155v164h-155v115h155q0 279 139 429t369 150q108 0 311 -55l80 -21l-24 -125l-78 23q-175 51 -285 51q-375 0 -375 -452h508v-115h-510v-164h510v-117h-508q0 -456 375 -456q81 0 285 53l78 22l24 -123l-80 -22q-195 -55 -311 -55q-231 0 -369.5 149 t-138.5 432h-155z" />
<glyph unicode="&#x2122;" horiz-adv-x="1753" d="M123 1425v99h606v-99h-248v-741h-112v741h-246zM889 684v776q0 34 21.5 53t52.5 19q70 0 86 -55l206 -654l209 645q15 58 84 58q36 0 56 -17t20 -49v-776h-100v657l-209 -616q-12 -41 -64 -41q-49 0 -61 41l-203 612v-653h-98z" />
<glyph unicode="&#x25fc;" horiz-adv-x="1116" d="M0 0v1116h1116v-1116h-1116z" />
<glyph unicode="&#xfb01;" horiz-adv-x="1222" d="M51 977v117h182v123q0 171 83.5 260.5t234.5 89.5q62 0 217 -31l-20 -121q-129 31 -199 31q-103 0 -146 -55.5t-43 -182.5v-114h691v-1094h-133v977h-558v-977h-127v977h-182zM893 1473q0 46 24.5 74t65.5 28t65.5 -28t24.5 -74t-24.5 -73.5t-65.5 -27.5t-65.5 27.5 t-24.5 73.5z" />
<glyph unicode="&#xfb02;" horiz-adv-x="1204" d="M51 977v117h182v120q0 170 89.5 261.5t242.5 91.5q119 0 353 -35l126 41v-1573h-126v1413q-223 35 -355 35q-203 0 -203 -242v-112h355v-117h-355v-977h-127v977h-182z" />
</font>
</defs>
</svg>
